G75*
G70*
%OFA0B0*%
%FSLAX24Y24*%
%IPPOS*%
%LPD*%
%AMOC8*
5,1,8,0,0,1.08239X$1,22.5*
%
%ADD10C,0.0050*%
%ADD11C,0.0060*%
%ADD12C,0.0040*%
%ADD13C,0.0030*%
%ADD14C,0.1300*%
%ADD15C,0.0690*%
%ADD16C,0.0594*%
%ADD17C,0.0479*%
D10*
X021811Y000708D02*
X021811Y000825D01*
X021869Y000883D01*
X022103Y000883D01*
X022161Y000825D01*
X022161Y000708D01*
X022103Y000650D01*
X021986Y000650D01*
X021986Y000767D01*
X021869Y000650D02*
X021811Y000708D01*
X021869Y001018D02*
X021811Y001077D01*
X021811Y001193D01*
X021869Y001252D01*
X022103Y001252D01*
X022161Y001193D01*
X022161Y001077D01*
X022103Y001018D01*
X021869Y001018D01*
X022161Y001387D02*
X022161Y001620D01*
X021811Y001620D01*
X021928Y001755D02*
X022161Y001755D01*
X021986Y001755D02*
X021986Y001988D01*
X021928Y001988D02*
X021811Y001872D01*
X021928Y001755D01*
X021928Y001988D02*
X022161Y001988D01*
X022161Y002123D02*
X021811Y002123D01*
X021811Y002357D02*
X022161Y002123D01*
X022161Y002357D02*
X021811Y002357D01*
X021928Y002491D02*
X022161Y002491D01*
X021986Y002491D02*
X021986Y002725D01*
X021928Y002725D02*
X021811Y002608D01*
X021928Y002491D01*
X021928Y002725D02*
X022161Y002725D01*
X020061Y018377D02*
X020061Y018611D01*
X019711Y018611D01*
X019828Y018745D02*
X020061Y018745D01*
X019886Y018745D02*
X019886Y018979D01*
X019828Y018979D02*
X019711Y018862D01*
X019828Y018745D01*
X019828Y018979D02*
X020061Y018979D01*
X020061Y019231D02*
X019711Y019231D01*
X019711Y019347D02*
X019711Y019114D01*
X019711Y019476D02*
X019711Y019593D01*
X019711Y019534D02*
X020061Y019534D01*
X020061Y019476D02*
X020061Y019593D01*
X020003Y019728D02*
X019886Y019728D01*
X019886Y019844D01*
X019769Y019728D02*
X019711Y019786D01*
X019711Y019903D01*
X019769Y019961D01*
X020003Y019961D01*
X020061Y019903D01*
X020061Y019786D01*
X020003Y019728D01*
X020061Y020090D02*
X020061Y020207D01*
X020061Y020148D02*
X019711Y020148D01*
X019711Y020090D02*
X019711Y020207D01*
X019769Y020341D02*
X019711Y020400D01*
X019711Y020575D01*
X020061Y020575D01*
X020061Y020400D01*
X020003Y020341D01*
X019769Y020341D01*
D11*
X019283Y018470D02*
X019210Y018470D01*
X019136Y018397D01*
X019136Y018250D01*
X019210Y018176D01*
X019283Y018176D01*
X019356Y018250D01*
X019356Y018397D01*
X019283Y018470D01*
X019136Y018397D02*
X019063Y018470D01*
X018989Y018470D01*
X018916Y018397D01*
X018916Y018250D01*
X018989Y018176D01*
X019063Y018176D01*
X019136Y018250D01*
X018306Y018250D02*
X018233Y018176D01*
X017939Y018176D01*
X017866Y018250D01*
X017866Y018397D01*
X017939Y018470D01*
X018013Y018470D01*
X018086Y018397D01*
X018086Y018176D01*
X018306Y018250D02*
X018306Y018397D01*
X018233Y018470D01*
X017306Y018420D02*
X017306Y018126D01*
X017306Y018273D02*
X016866Y018273D01*
X017013Y018420D01*
X016939Y017960D02*
X016866Y017886D01*
X016866Y017739D01*
X016939Y017666D01*
X017233Y017960D01*
X017306Y017886D01*
X017306Y017739D01*
X017233Y017666D01*
X016939Y017666D01*
X016939Y017960D02*
X017233Y017960D01*
X016306Y018010D02*
X016306Y017716D01*
X016306Y017863D02*
X015866Y017863D01*
X016013Y018010D01*
X016306Y018176D02*
X016306Y018470D01*
X016306Y018323D02*
X015866Y018323D01*
X016013Y018470D01*
X015306Y018470D02*
X015306Y018176D01*
X015306Y018323D02*
X014866Y018323D01*
X015013Y018470D01*
X014939Y018010D02*
X014866Y017936D01*
X014866Y017789D01*
X014939Y017716D01*
X015013Y017716D01*
X015306Y018010D01*
X015306Y017716D01*
X014306Y017789D02*
X014306Y017936D01*
X014233Y018010D01*
X014306Y018176D02*
X014306Y018470D01*
X014306Y018323D02*
X013866Y018323D01*
X014013Y018470D01*
X013939Y018010D02*
X013866Y017936D01*
X013866Y017789D01*
X013939Y017716D01*
X014013Y017716D01*
X014086Y017789D01*
X014160Y017716D01*
X014233Y017716D01*
X014306Y017789D01*
X014086Y017789D02*
X014086Y017863D01*
X020466Y018176D02*
X020539Y018176D01*
X020833Y018470D01*
X020906Y018470D01*
X021466Y018176D02*
X021539Y018323D01*
X021686Y018470D01*
X021686Y018250D01*
X021760Y018176D01*
X021833Y018176D01*
X021906Y018250D01*
X021906Y018397D01*
X021833Y018470D01*
X021686Y018470D01*
X022466Y018470D02*
X022466Y018176D01*
X022613Y018250D02*
X022686Y018176D01*
X022833Y018176D01*
X022906Y018250D01*
X022906Y018397D01*
X022833Y018470D01*
X022686Y018470D02*
X022613Y018323D01*
X022613Y018250D01*
X022686Y018470D02*
X022466Y018470D01*
X023466Y018250D02*
X023686Y018470D01*
X023686Y018176D01*
X023906Y018250D02*
X023466Y018250D01*
X024466Y018250D02*
X024539Y018176D01*
X024613Y018176D01*
X024686Y018250D01*
X024760Y018176D01*
X024833Y018176D01*
X024906Y018250D01*
X024906Y018397D01*
X024833Y018470D01*
X024686Y018323D02*
X024686Y018250D01*
X024466Y018250D02*
X024466Y018397D01*
X024539Y018470D01*
X025466Y018397D02*
X025466Y018250D01*
X025539Y018176D01*
X025613Y018176D01*
X025906Y018470D01*
X025906Y018176D01*
X025539Y018470D02*
X025466Y018397D01*
X026466Y018323D02*
X026906Y018323D01*
X026906Y018470D02*
X026906Y018176D01*
X026613Y018470D02*
X026466Y018323D01*
X027466Y018250D02*
X027539Y018176D01*
X027833Y018470D01*
X027906Y018397D01*
X027906Y018250D01*
X027833Y018176D01*
X027539Y018176D01*
X027466Y018250D02*
X027466Y018397D01*
X027539Y018470D01*
X027833Y018470D01*
X020466Y018470D02*
X020466Y018176D01*
D12*
X022626Y003300D02*
X022579Y003254D01*
X022766Y003067D01*
X022720Y003020D01*
X022626Y003020D01*
X022579Y003067D01*
X022579Y003254D01*
X022626Y003300D02*
X022720Y003300D01*
X022766Y003254D01*
X022766Y003067D01*
X023579Y003020D02*
X023766Y003020D01*
X023673Y003020D02*
X023673Y003300D01*
X023766Y003207D01*
X024579Y003207D02*
X024579Y003254D01*
X024626Y003300D01*
X024720Y003300D01*
X024766Y003254D01*
X024579Y003207D02*
X024766Y003020D01*
X024579Y003020D01*
X025579Y003067D02*
X025626Y003020D01*
X025720Y003020D01*
X025766Y003067D01*
X025673Y003160D02*
X025626Y003160D01*
X025579Y003113D01*
X025579Y003067D01*
X025626Y003160D02*
X025579Y003207D01*
X025579Y003254D01*
X025626Y003300D01*
X025720Y003300D01*
X025766Y003254D01*
X026579Y003160D02*
X026766Y003160D01*
X026626Y003300D01*
X026626Y003020D01*
X027579Y003067D02*
X027626Y003020D01*
X027720Y003020D01*
X027766Y003067D01*
X027766Y003160D02*
X027673Y003207D01*
X027626Y003207D01*
X027579Y003160D01*
X027579Y003067D01*
X027766Y003160D02*
X027766Y003300D01*
X027579Y003300D01*
D13*
X020321Y002765D02*
X020251Y002695D01*
X020111Y002695D01*
X020111Y002614D02*
X020111Y002544D01*
X020111Y002579D02*
X020321Y002579D01*
X020321Y002614D02*
X020321Y002544D01*
X020321Y002467D02*
X020111Y002467D01*
X020321Y002327D01*
X020111Y002327D01*
X020321Y002765D02*
X020251Y002835D01*
X020111Y002835D01*
X019321Y002850D02*
X019321Y002780D01*
X019286Y002745D01*
X019216Y002745D01*
X019216Y002815D01*
X019146Y002885D02*
X019286Y002885D01*
X019321Y002850D01*
X019146Y002885D02*
X019111Y002850D01*
X019111Y002780D01*
X019146Y002745D01*
X019111Y002664D02*
X019321Y002524D01*
X019111Y002524D01*
X019111Y002443D02*
X019111Y002338D01*
X019146Y002303D01*
X019286Y002303D01*
X019321Y002338D01*
X019321Y002443D01*
X019111Y002443D01*
X019111Y002664D02*
X019321Y002664D01*
X018321Y002664D02*
X018111Y002664D01*
X018321Y002524D01*
X018111Y002524D01*
X018111Y002443D02*
X018111Y002338D01*
X018146Y002303D01*
X018286Y002303D01*
X018321Y002338D01*
X018321Y002443D01*
X018111Y002443D01*
X018146Y002745D02*
X018111Y002780D01*
X018111Y002850D01*
X018146Y002885D01*
X018286Y002885D01*
X018321Y002850D01*
X018321Y002780D01*
X018286Y002745D01*
X018216Y002745D01*
X018216Y002815D01*
X017321Y002850D02*
X017286Y002885D01*
X017321Y002850D02*
X017321Y002780D01*
X017286Y002745D01*
X017216Y002745D01*
X017181Y002780D01*
X017181Y002815D01*
X017216Y002885D01*
X017111Y002885D01*
X017111Y002745D01*
X017111Y002664D02*
X017251Y002664D01*
X017321Y002594D01*
X017251Y002524D01*
X017111Y002524D01*
X016321Y002518D02*
X016286Y002554D01*
X016321Y002518D02*
X016321Y002448D01*
X016286Y002413D01*
X016251Y002413D01*
X016216Y002448D01*
X016216Y002483D01*
X016216Y002448D02*
X016181Y002413D01*
X016146Y002413D01*
X016111Y002448D01*
X016111Y002518D01*
X016146Y002554D01*
X016286Y002629D02*
X016321Y002629D01*
X016321Y002664D01*
X016286Y002664D01*
X016286Y002629D01*
X016286Y002745D02*
X016321Y002780D01*
X016321Y002850D01*
X016286Y002885D01*
X016216Y002815D02*
X016216Y002780D01*
X016251Y002745D01*
X016286Y002745D01*
X016216Y002780D02*
X016181Y002745D01*
X016146Y002745D01*
X016111Y002780D01*
X016111Y002850D01*
X016146Y002885D01*
X016111Y002333D02*
X016251Y002333D01*
X016321Y002262D01*
X016251Y002192D01*
X016111Y002192D01*
X015321Y002373D02*
X015111Y002373D01*
X015111Y002443D02*
X015111Y002303D01*
X015146Y002524D02*
X015111Y002559D01*
X015111Y002629D01*
X015146Y002664D01*
X015181Y002664D01*
X015216Y002629D01*
X015216Y002559D01*
X015251Y002524D01*
X015286Y002524D01*
X015321Y002559D01*
X015321Y002629D01*
X015286Y002664D01*
X015321Y002745D02*
X015251Y002815D01*
X015251Y002780D02*
X015251Y002885D01*
X015321Y002885D02*
X015111Y002885D01*
X015111Y002780D01*
X015146Y002745D01*
X015216Y002745D01*
X015251Y002780D01*
X014321Y002815D02*
X014321Y002885D01*
X014321Y002850D02*
X014111Y002850D01*
X014111Y002885D02*
X014111Y002815D01*
X014146Y002738D02*
X014286Y002738D01*
X014321Y002703D01*
X014321Y002633D01*
X014286Y002598D01*
X014146Y002598D01*
X014111Y002633D01*
X014111Y002703D01*
X014146Y002738D01*
X014111Y002517D02*
X014111Y002412D01*
X014146Y002377D01*
X014216Y002377D01*
X014251Y002412D01*
X014251Y002517D01*
X014321Y002517D02*
X014111Y002517D01*
X014251Y002447D02*
X014321Y002377D01*
X014321Y002296D02*
X014321Y002156D01*
X014321Y002075D02*
X014111Y002075D01*
X014111Y001935D01*
X014216Y002005D02*
X014216Y002075D01*
X014111Y002156D02*
X014111Y002296D01*
X014321Y002296D01*
X014216Y002296D02*
X014216Y002226D01*
X011511Y019282D02*
X011511Y019422D01*
X011721Y019422D01*
X011721Y019503D02*
X011721Y019643D01*
X011511Y019643D01*
X011511Y019503D01*
X011616Y019573D02*
X011616Y019643D01*
X011616Y019724D02*
X011651Y019759D01*
X011651Y019864D01*
X011651Y019794D02*
X011721Y019724D01*
X011616Y019724D02*
X011546Y019724D01*
X011511Y019759D01*
X011511Y019864D01*
X011721Y019864D01*
X011721Y019945D02*
X011581Y019945D01*
X011511Y020015D01*
X011581Y020085D01*
X011721Y020085D01*
X011616Y020085D02*
X011616Y019945D01*
X011616Y019422D02*
X011616Y019352D01*
X012511Y019438D02*
X012511Y019543D01*
X012721Y019543D01*
X012721Y019438D01*
X012686Y019403D01*
X012546Y019403D01*
X012511Y019438D01*
X012511Y019624D02*
X012721Y019624D01*
X012511Y019764D01*
X012721Y019764D01*
X012686Y019845D02*
X012616Y019845D01*
X012616Y019915D01*
X012546Y019985D02*
X012686Y019985D01*
X012721Y019950D01*
X012721Y019880D01*
X012686Y019845D01*
X012546Y019845D02*
X012511Y019880D01*
X012511Y019950D01*
X012546Y019985D01*
X010721Y020000D02*
X010686Y020035D01*
X010721Y020000D02*
X010721Y019930D01*
X010686Y019895D01*
X010651Y019895D01*
X010616Y019930D01*
X010616Y020000D01*
X010581Y020035D01*
X010546Y020035D01*
X010511Y020000D01*
X010511Y019930D01*
X010546Y019895D01*
X010511Y019814D02*
X010511Y019709D01*
X010546Y019674D01*
X010686Y019674D01*
X010721Y019709D01*
X010721Y019814D01*
X010511Y019814D01*
X010581Y019593D02*
X010511Y019523D01*
X010581Y019453D01*
X010721Y019453D01*
X010616Y019453D02*
X010616Y019593D01*
X010581Y019593D02*
X010721Y019593D01*
X009671Y019543D02*
X009671Y019403D01*
X009671Y019543D02*
X009461Y019543D01*
X009496Y019624D02*
X009461Y019659D01*
X009461Y019729D01*
X009496Y019764D01*
X009636Y019764D01*
X009671Y019729D01*
X009671Y019659D01*
X009636Y019624D01*
X009636Y019845D02*
X009671Y019880D01*
X009671Y019950D01*
X009636Y019985D01*
X009566Y019950D02*
X009566Y019880D01*
X009601Y019845D01*
X009636Y019845D01*
X009566Y019950D02*
X009531Y019985D01*
X009496Y019985D01*
X009461Y019950D01*
X009461Y019880D01*
X009496Y019845D01*
D14*
X008686Y020150D03*
X028686Y014150D03*
X028686Y003150D03*
D15*
X027686Y002150D03*
X026686Y002150D03*
X025686Y002150D03*
X024686Y002150D03*
X023686Y002150D03*
X022686Y002150D03*
X022686Y001150D03*
X023686Y001150D03*
X024686Y001150D03*
X025686Y001150D03*
X026686Y001150D03*
X027686Y001150D03*
X020686Y001150D03*
X019686Y001150D03*
X018686Y001150D03*
X017686Y001150D03*
X016686Y001150D03*
X015686Y001150D03*
X014686Y001150D03*
X013686Y001150D03*
X013686Y002150D03*
X014686Y002150D03*
X015686Y002150D03*
X016686Y002150D03*
X017686Y002150D03*
X018686Y002150D03*
X019686Y002150D03*
X020686Y002150D03*
X004236Y013750D03*
X004236Y014750D03*
X004236Y015750D03*
X010086Y019150D03*
X011086Y019150D03*
X012086Y019150D03*
X013086Y019150D03*
X014086Y019150D03*
X015086Y019150D03*
X016086Y019150D03*
X017086Y019150D03*
X018086Y019150D03*
X019086Y019150D03*
X019086Y020150D03*
X018086Y020150D03*
X017086Y020150D03*
X016086Y020150D03*
X015086Y020150D03*
X014086Y020150D03*
X013086Y020150D03*
X012086Y020150D03*
X011086Y020150D03*
X010086Y020150D03*
X020686Y020150D03*
X021686Y020150D03*
X022686Y020150D03*
X023686Y020150D03*
X024686Y020150D03*
X025686Y020150D03*
X026686Y020150D03*
X027686Y020150D03*
X027686Y019150D03*
X026686Y019150D03*
X025686Y019150D03*
X024686Y019150D03*
X023686Y019150D03*
X022686Y019150D03*
X021686Y019150D03*
X020686Y019150D03*
D16*
X005686Y002150D03*
X006686Y002150D03*
X007686Y002150D03*
X008686Y002150D03*
X012686Y004650D03*
X014686Y005150D03*
X014686Y007150D03*
X015686Y007150D03*
X012686Y008650D03*
X008686Y007150D03*
X007686Y007150D03*
X006686Y007150D03*
X005686Y007150D03*
X004186Y006650D03*
X004186Y005650D03*
X005686Y005150D03*
X006686Y005150D03*
X007686Y005150D03*
X008686Y005150D03*
X008686Y010150D03*
X007686Y010150D03*
X006686Y010150D03*
X005686Y010150D03*
X005786Y013000D03*
X005636Y014150D03*
X005636Y015100D03*
X005836Y016150D03*
X005686Y018600D03*
X006686Y018600D03*
X004686Y018600D03*
X009836Y016150D03*
X009636Y015100D03*
X010736Y015100D03*
X011736Y015100D03*
X009636Y014150D03*
X010736Y013400D03*
X009786Y013000D03*
X011736Y013400D03*
X017186Y012650D03*
X018186Y012650D03*
X019186Y012650D03*
X020186Y012650D03*
X021186Y012650D03*
X022186Y012650D03*
X023186Y012650D03*
X024186Y012650D03*
X025186Y012650D03*
X026186Y012650D03*
X027686Y012650D03*
X027686Y011650D03*
X025186Y010650D03*
X023686Y010150D03*
X021686Y008650D03*
X019686Y010150D03*
X025186Y006650D03*
X027686Y005650D03*
X026186Y004650D03*
X025186Y004650D03*
X023686Y004650D03*
X022686Y004650D03*
X021686Y004650D03*
X018686Y005150D03*
X027686Y009650D03*
X026186Y015650D03*
X025186Y015650D03*
X024186Y015650D03*
X023186Y015650D03*
X022186Y015650D03*
X021186Y015650D03*
X020186Y015650D03*
X019186Y015650D03*
X018186Y015650D03*
X017186Y015650D03*
D17*
X019574Y018183D03*
X012758Y010956D03*
M02*
