%
M48
M72
T01C0.0240
T02C0.0354
T03C0.0433
T04C0.1260
%
T01
X12758Y10956
X19574Y18183
T02
X5686Y2150
X6686Y2150
X7686Y2150
X8686Y2150
X12686Y4650
X14686Y5150
X14686Y7150
X15686Y7150
X12686Y8650
X8686Y7150
X7686Y7150
X6686Y7150
X5686Y7150
X4186Y6650
X4186Y5650
X5686Y5150
X6686Y5150
X7686Y5150
X8686Y5150
X8686Y10150
X7686Y10150
X6686Y10150
X5686Y10150
X5786Y13000
X5636Y14150
X5636Y15100
X5836Y16150
X5686Y18600
X6686Y18600
X4686Y18600
X9836Y16150
X9636Y15100
X10736Y15100
X11736Y15100
X9636Y14150
X10736Y13400
X9786Y13000
X11736Y13400
X17186Y12650
X18186Y12650
X19186Y12650
X20186Y12650
X21186Y12650
X22186Y12650
X23186Y12650
X24186Y12650
X25186Y12650
X26186Y12650
X27686Y12650
X27686Y11650
X25186Y10650
X23686Y10150
X21686Y8650
X19686Y10150
X25186Y6650
X27686Y5650
X26186Y4650
X25186Y4650
X23686Y4650
X22686Y4650
X21686Y4650
X18686Y5150
X27686Y9650
X26186Y15650
X25186Y15650
X24186Y15650
X23186Y15650
X22186Y15650
X21186Y15650
X20186Y15650
X19186Y15650
X18186Y15650
X17186Y15650
T03
X17086Y19150
X18086Y19150
X19086Y19150
X19086Y20150
X18086Y20150
X17086Y20150
X16086Y20150
X15086Y20150
X14086Y20150
X13086Y20150
X12086Y20150
X11086Y20150
X10086Y20150
X10086Y19150
X11086Y19150
X12086Y19150
X13086Y19150
X14086Y19150
X15086Y19150
X16086Y19150
X20686Y19150
X21686Y19150
X22686Y19150
X23686Y19150
X24686Y19150
X25686Y19150
X26686Y19150
X27686Y19150
X27686Y20150
X26686Y20150
X25686Y20150
X24686Y20150
X23686Y20150
X22686Y20150
X21686Y20150
X20686Y20150
X4236Y15750
X4236Y14750
X4236Y13750
X13686Y2150
X14686Y2150
X15686Y2150
X16686Y2150
X17686Y2150
X18686Y2150
X19686Y2150
X20686Y2150
X20686Y1150
X19686Y1150
X18686Y1150
X17686Y1150
X16686Y1150
X15686Y1150
X14686Y1150
X13686Y1150
X22686Y1150
X23686Y1150
X24686Y1150
X25686Y1150
X26686Y1150
X27686Y1150
X27686Y2150
X26686Y2150
X25686Y2150
X24686Y2150
X23686Y2150
X22686Y2150
T04
X28686Y3150
X28686Y14150
X8686Y20150
M30
