G75*
G70*
%OFA0B0*%
%FSLAX24Y24*%
%IPPOS*%
%LPD*%
%AMOC8*
5,1,8,0,0,1.08239X$1,22.5*
%
%ADD10C,0.0100*%
%ADD11C,0.0000*%
D10*
X002686Y000544D02*
X002686Y020756D01*
X002688Y020795D01*
X002694Y020833D01*
X002703Y020870D01*
X002716Y020907D01*
X002733Y020942D01*
X002752Y020975D01*
X002775Y021006D01*
X002801Y021035D01*
X002830Y021061D01*
X002861Y021084D01*
X002894Y021103D01*
X002929Y021120D01*
X002966Y021133D01*
X003003Y021142D01*
X003041Y021148D01*
X003080Y021150D01*
X028086Y021150D01*
X028686Y020550D01*
X028686Y016050D01*
X029686Y015050D01*
X029686Y002150D01*
X028686Y001150D01*
X028686Y000544D01*
X028687Y000544D02*
X028685Y000505D01*
X028679Y000467D01*
X028670Y000430D01*
X028657Y000393D01*
X028640Y000358D01*
X028621Y000325D01*
X028598Y000294D01*
X028572Y000265D01*
X028543Y000239D01*
X028512Y000216D01*
X028479Y000197D01*
X028444Y000180D01*
X028407Y000167D01*
X028370Y000158D01*
X028332Y000152D01*
X028293Y000150D01*
X003080Y000150D01*
X003041Y000152D01*
X003003Y000158D01*
X002966Y000167D01*
X002929Y000180D01*
X002894Y000197D01*
X002861Y000216D01*
X002830Y000239D01*
X002801Y000265D01*
X002775Y000294D01*
X002752Y000325D01*
X002733Y000358D01*
X002716Y000393D01*
X002703Y000430D01*
X002694Y000467D01*
X002688Y000505D01*
X002686Y000544D01*
D11*
X028056Y003150D02*
X028058Y003200D01*
X028064Y003250D01*
X028074Y003299D01*
X028088Y003347D01*
X028105Y003394D01*
X028126Y003439D01*
X028151Y003483D01*
X028179Y003524D01*
X028211Y003563D01*
X028245Y003600D01*
X028282Y003634D01*
X028322Y003664D01*
X028364Y003691D01*
X028408Y003715D01*
X028454Y003736D01*
X028501Y003752D01*
X028549Y003765D01*
X028599Y003774D01*
X028648Y003779D01*
X028699Y003780D01*
X028749Y003777D01*
X028798Y003770D01*
X028847Y003759D01*
X028895Y003744D01*
X028941Y003726D01*
X028986Y003704D01*
X029029Y003678D01*
X029070Y003649D01*
X029109Y003617D01*
X029145Y003582D01*
X029177Y003544D01*
X029207Y003504D01*
X029234Y003461D01*
X029257Y003417D01*
X029276Y003371D01*
X029292Y003323D01*
X029304Y003274D01*
X029312Y003225D01*
X029316Y003175D01*
X029316Y003125D01*
X029312Y003075D01*
X029304Y003026D01*
X029292Y002977D01*
X029276Y002929D01*
X029257Y002883D01*
X029234Y002839D01*
X029207Y002796D01*
X029177Y002756D01*
X029145Y002718D01*
X029109Y002683D01*
X029070Y002651D01*
X029029Y002622D01*
X028986Y002596D01*
X028941Y002574D01*
X028895Y002556D01*
X028847Y002541D01*
X028798Y002530D01*
X028749Y002523D01*
X028699Y002520D01*
X028648Y002521D01*
X028599Y002526D01*
X028549Y002535D01*
X028501Y002548D01*
X028454Y002564D01*
X028408Y002585D01*
X028364Y002609D01*
X028322Y002636D01*
X028282Y002666D01*
X028245Y002700D01*
X028211Y002737D01*
X028179Y002776D01*
X028151Y002817D01*
X028126Y002861D01*
X028105Y002906D01*
X028088Y002953D01*
X028074Y003001D01*
X028064Y003050D01*
X028058Y003100D01*
X028056Y003150D01*
X028056Y014150D02*
X028058Y014200D01*
X028064Y014250D01*
X028074Y014299D01*
X028088Y014347D01*
X028105Y014394D01*
X028126Y014439D01*
X028151Y014483D01*
X028179Y014524D01*
X028211Y014563D01*
X028245Y014600D01*
X028282Y014634D01*
X028322Y014664D01*
X028364Y014691D01*
X028408Y014715D01*
X028454Y014736D01*
X028501Y014752D01*
X028549Y014765D01*
X028599Y014774D01*
X028648Y014779D01*
X028699Y014780D01*
X028749Y014777D01*
X028798Y014770D01*
X028847Y014759D01*
X028895Y014744D01*
X028941Y014726D01*
X028986Y014704D01*
X029029Y014678D01*
X029070Y014649D01*
X029109Y014617D01*
X029145Y014582D01*
X029177Y014544D01*
X029207Y014504D01*
X029234Y014461D01*
X029257Y014417D01*
X029276Y014371D01*
X029292Y014323D01*
X029304Y014274D01*
X029312Y014225D01*
X029316Y014175D01*
X029316Y014125D01*
X029312Y014075D01*
X029304Y014026D01*
X029292Y013977D01*
X029276Y013929D01*
X029257Y013883D01*
X029234Y013839D01*
X029207Y013796D01*
X029177Y013756D01*
X029145Y013718D01*
X029109Y013683D01*
X029070Y013651D01*
X029029Y013622D01*
X028986Y013596D01*
X028941Y013574D01*
X028895Y013556D01*
X028847Y013541D01*
X028798Y013530D01*
X028749Y013523D01*
X028699Y013520D01*
X028648Y013521D01*
X028599Y013526D01*
X028549Y013535D01*
X028501Y013548D01*
X028454Y013564D01*
X028408Y013585D01*
X028364Y013609D01*
X028322Y013636D01*
X028282Y013666D01*
X028245Y013700D01*
X028211Y013737D01*
X028179Y013776D01*
X028151Y013817D01*
X028126Y013861D01*
X028105Y013906D01*
X028088Y013953D01*
X028074Y014001D01*
X028064Y014050D01*
X028058Y014100D01*
X028056Y014150D01*
X008056Y020150D02*
X008058Y020200D01*
X008064Y020250D01*
X008074Y020299D01*
X008088Y020347D01*
X008105Y020394D01*
X008126Y020439D01*
X008151Y020483D01*
X008179Y020524D01*
X008211Y020563D01*
X008245Y020600D01*
X008282Y020634D01*
X008322Y020664D01*
X008364Y020691D01*
X008408Y020715D01*
X008454Y020736D01*
X008501Y020752D01*
X008549Y020765D01*
X008599Y020774D01*
X008648Y020779D01*
X008699Y020780D01*
X008749Y020777D01*
X008798Y020770D01*
X008847Y020759D01*
X008895Y020744D01*
X008941Y020726D01*
X008986Y020704D01*
X009029Y020678D01*
X009070Y020649D01*
X009109Y020617D01*
X009145Y020582D01*
X009177Y020544D01*
X009207Y020504D01*
X009234Y020461D01*
X009257Y020417D01*
X009276Y020371D01*
X009292Y020323D01*
X009304Y020274D01*
X009312Y020225D01*
X009316Y020175D01*
X009316Y020125D01*
X009312Y020075D01*
X009304Y020026D01*
X009292Y019977D01*
X009276Y019929D01*
X009257Y019883D01*
X009234Y019839D01*
X009207Y019796D01*
X009177Y019756D01*
X009145Y019718D01*
X009109Y019683D01*
X009070Y019651D01*
X009029Y019622D01*
X008986Y019596D01*
X008941Y019574D01*
X008895Y019556D01*
X008847Y019541D01*
X008798Y019530D01*
X008749Y019523D01*
X008699Y019520D01*
X008648Y019521D01*
X008599Y019526D01*
X008549Y019535D01*
X008501Y019548D01*
X008454Y019564D01*
X008408Y019585D01*
X008364Y019609D01*
X008322Y019636D01*
X008282Y019666D01*
X008245Y019700D01*
X008211Y019737D01*
X008179Y019776D01*
X008151Y019817D01*
X008126Y019861D01*
X008105Y019906D01*
X008088Y019953D01*
X008074Y020001D01*
X008064Y020050D01*
X008058Y020100D01*
X008056Y020150D01*
M02*
