G75*
G70*
%OFA0B0*%
%FSLAX24Y24*%
%IPPOS*%
%LPD*%
%AMOC8*
5,1,8,0,0,1.08239X$1,22.5*
%
%ADD10C,0.0650*%
%ADD11C,0.0554*%
%ADD12C,0.0236*%
%ADD13C,0.0439*%
D10*
X013686Y001150D03*
X014686Y001150D03*
X015686Y001150D03*
X016686Y001150D03*
X017686Y001150D03*
X018686Y001150D03*
X019686Y001150D03*
X020686Y001150D03*
X020686Y002150D03*
X019686Y002150D03*
X018686Y002150D03*
X017686Y002150D03*
X016686Y002150D03*
X015686Y002150D03*
X014686Y002150D03*
X013686Y002150D03*
X022686Y002150D03*
X023686Y002150D03*
X024686Y002150D03*
X025686Y002150D03*
X026686Y002150D03*
X027686Y002150D03*
X027686Y001150D03*
X026686Y001150D03*
X025686Y001150D03*
X024686Y001150D03*
X023686Y001150D03*
X022686Y001150D03*
X004236Y013750D03*
X004236Y014750D03*
X004236Y015750D03*
X010086Y019150D03*
X011086Y019150D03*
X012086Y019150D03*
X013086Y019150D03*
X014086Y019150D03*
X015086Y019150D03*
X016086Y019150D03*
X017086Y019150D03*
X018086Y019150D03*
X019086Y019150D03*
X019086Y020150D03*
X018086Y020150D03*
X017086Y020150D03*
X016086Y020150D03*
X015086Y020150D03*
X014086Y020150D03*
X013086Y020150D03*
X012086Y020150D03*
X011086Y020150D03*
X010086Y020150D03*
X020686Y020150D03*
X021686Y020150D03*
X022686Y020150D03*
X023686Y020150D03*
X024686Y020150D03*
X025686Y020150D03*
X026686Y020150D03*
X027686Y020150D03*
X027686Y019150D03*
X026686Y019150D03*
X025686Y019150D03*
X024686Y019150D03*
X023686Y019150D03*
X022686Y019150D03*
X021686Y019150D03*
X020686Y019150D03*
D11*
X005686Y002150D03*
X006686Y002150D03*
X007686Y002150D03*
X008686Y002150D03*
X012686Y004650D03*
X014686Y005150D03*
X014686Y007150D03*
X015686Y007150D03*
X012686Y008650D03*
X008686Y007150D03*
X007686Y007150D03*
X006686Y007150D03*
X005686Y007150D03*
X004186Y006650D03*
X004186Y005650D03*
X005686Y005150D03*
X006686Y005150D03*
X007686Y005150D03*
X008686Y005150D03*
X008686Y010150D03*
X007686Y010150D03*
X006686Y010150D03*
X005686Y010150D03*
X005786Y013000D03*
X005636Y014150D03*
X005636Y015100D03*
X005836Y016150D03*
X005686Y018600D03*
X006686Y018600D03*
X004686Y018600D03*
X009836Y016150D03*
X009636Y015100D03*
X010736Y015100D03*
X011736Y015100D03*
X009636Y014150D03*
X010736Y013400D03*
X009786Y013000D03*
X011736Y013400D03*
X017186Y012650D03*
X018186Y012650D03*
X019186Y012650D03*
X020186Y012650D03*
X021186Y012650D03*
X022186Y012650D03*
X023186Y012650D03*
X024186Y012650D03*
X025186Y012650D03*
X026186Y012650D03*
X027686Y012650D03*
X027686Y011650D03*
X025186Y010650D03*
X023686Y010150D03*
X021686Y008650D03*
X019686Y010150D03*
X025186Y006650D03*
X027686Y005650D03*
X026186Y004650D03*
X025186Y004650D03*
X023686Y004650D03*
X022686Y004650D03*
X021686Y004650D03*
X018686Y005150D03*
X027686Y009650D03*
X026186Y015650D03*
X025186Y015650D03*
X024186Y015650D03*
X023186Y015650D03*
X022186Y015650D03*
X021186Y015650D03*
X020186Y015650D03*
X019186Y015650D03*
X018186Y015650D03*
X017186Y015650D03*
D12*
X016636Y015100D01*
X011736Y015100D01*
X010886Y014250D01*
X011736Y013400D01*
X010886Y014250D02*
X010786Y014150D01*
X009636Y014150D01*
X009636Y015100D02*
X010736Y015100D01*
X009636Y015100D02*
X006886Y015100D01*
X005836Y016150D01*
X004636Y016150D01*
X004236Y015750D01*
X005636Y014150D02*
X006349Y013438D01*
X006349Y012555D01*
X005126Y011332D01*
X005126Y009925D01*
X005459Y009593D01*
X023129Y009593D01*
X023686Y010150D01*
X025186Y010650D02*
X025747Y010089D01*
X025747Y006415D01*
X025201Y005869D01*
X021547Y005869D01*
X017828Y002150D01*
X017686Y002150D01*
X016326Y003511D01*
X007326Y003511D01*
X005686Y005150D01*
X005186Y005650D01*
X005186Y006650D01*
X005686Y007150D01*
X005186Y006650D02*
X004186Y006650D01*
X004186Y005650D02*
X006786Y003050D01*
X007786Y003050D01*
X008686Y002150D01*
X007686Y002150D02*
X009298Y000538D01*
X020937Y000538D01*
X021686Y001287D01*
X021686Y004650D01*
X022686Y004650D01*
X023686Y004650D02*
X025186Y004650D01*
X026186Y004650D02*
X027186Y005650D01*
X027686Y005650D01*
X027186Y005650D02*
X027122Y005715D01*
X027122Y011085D01*
X027686Y011650D01*
X027686Y012650D02*
X026186Y012650D01*
X025186Y012650D02*
X026752Y014216D01*
X026752Y015872D01*
X025352Y017272D01*
X016965Y017272D01*
X015086Y019150D01*
X016964Y016873D02*
X018186Y015650D01*
X016964Y016873D02*
X007414Y016873D01*
X005686Y018600D01*
X004236Y013750D02*
X004986Y013000D01*
X005786Y013000D01*
X008493Y010956D02*
X007686Y010150D01*
X008686Y010150D02*
X014686Y010150D01*
X017186Y012650D01*
X017621Y013215D02*
X016249Y013215D01*
X015879Y012846D01*
X009940Y012846D01*
X009786Y013000D01*
X008493Y010956D02*
X012758Y010956D01*
X012686Y008650D02*
X011186Y008650D01*
X007686Y005150D01*
X006686Y005150D01*
X008686Y005150D02*
X009742Y004094D01*
X019144Y004094D01*
X021700Y006650D01*
X025186Y006650D01*
X021686Y008650D02*
X012686Y008650D01*
X015686Y007150D02*
X017686Y005150D01*
X018686Y005150D01*
X014686Y005150D02*
X014186Y004650D01*
X012686Y004650D01*
X020186Y012650D02*
X020740Y012096D01*
X021632Y012096D01*
X022186Y012650D01*
X022742Y012094D01*
X023631Y012094D01*
X024186Y012650D01*
X023186Y015650D02*
X022631Y016206D01*
X021742Y016206D01*
X021186Y015650D01*
X021719Y018183D02*
X019574Y018183D01*
X021719Y018183D02*
X022686Y019150D01*
X017621Y013215D02*
X018186Y012650D01*
D13*
X012758Y010956D03*
X019574Y018183D03*
M02*
